<?xml version="1.0" encoding="UTF-8" standalone="no"?>
<!DOCTYPE svg PUBLIC "-//W3C//DTD SVG 1.1//EN"
 "http://www.w3.org/Graphics/SVG/1.1/DTD/svg11.dtd">
<!-- Generated by graphviz version 2.43.0 (0)
 -->
<!-- Title: sourcetree Pages: 1 -->
<svg width="990pt" height="188pt"
 viewBox="0.00 0.00 990.00 188.00" xmlns="http://www.w3.org/2000/svg" xmlns:xlink="http://www.w3.org/1999/xlink">
<g id="graph0" class="graph" transform="scale(1 1) rotate(0) translate(4 184)">
<title>sourcetree</title>
<polygon fill="white" stroke="transparent" points="-4,4 -4,-184 986,-184 986,4 -4,4"/>
<!-- mulle&#45;core&#45;all&#45;load -->
<g id="node1" class="node">
<title>mulle&#45;core&#45;all&#45;load</title>
<polygon fill="yellow" stroke="black" points="563,-180 415,-180 415,-144 563,-144 563,-180"/>
<text text-anchor="middle" x="489" y="-158.3" font-family="Times,serif" font-size="14.00">mulle&#45;core&#45;all&#45;load</text>
</g>
<!-- libbacktrace -->
<g id="node3" class="node">
<title>libbacktrace</title>
<g id="a_node3"><a xlink:href="https://github.com/mulle-core/libbacktrace" xlink:title="libbacktrace">
<polygon fill="lightgrey" stroke="black" points="104,-108 0,-108 0,-72 104,-72 104,-108"/>
<text text-anchor="middle" x="52" y="-86.3" font-family="Times,serif" font-size="14.00">libbacktrace</text>
</a>
</g>
</g>
<!-- mulle&#45;core&#45;all&#45;load&#45;&gt;libbacktrace -->
<g id="edge1" class="edge">
<title>mulle&#45;core&#45;all&#45;load&#45;&gt;libbacktrace</title>
<path fill="none" stroke="black" d="M414.66,-153.45C340.68,-145.27 223.83,-130.56 114.05,-108.07"/>
<polygon fill="black" stroke="black" points="114.63,-104.62 104.13,-106.02 113.21,-111.47 114.63,-104.62"/>
</g>
<!-- mulle&#45;allocator -->
<g id="node5" class="node">
<title>mulle&#45;allocator</title>
<g id="a_node5"><a xlink:href="https://github.com/mulle-c/mulle-allocator" xlink:title="mulle&#45;allocator">
<polygon fill="lightgrey" stroke="black" points="245.5,-108 122.5,-108 122.5,-72 245.5,-72 245.5,-108"/>
<text text-anchor="middle" x="184" y="-86.3" font-family="Times,serif" font-size="14.00">mulle&#45;allocator</text>
</a>
</g>
</g>
<!-- mulle&#45;core&#45;all&#45;load&#45;&gt;mulle&#45;allocator -->
<g id="edge2" class="edge">
<title>mulle&#45;core&#45;all&#45;load&#45;&gt;mulle&#45;allocator</title>
<path fill="none" stroke="black" d="M414.91,-144.46C371.29,-134.67 314.78,-121.88 255.49,-108.1"/>
<polygon fill="black" stroke="black" points="256.1,-104.65 245.56,-105.79 254.51,-111.47 256.1,-104.65"/>
</g>
<!-- mulle&#45;atexit -->
<g id="node6" class="node">
<title>mulle&#45;atexit</title>
<g id="a_node6"><a xlink:href="https://github.com/mulle-core/mulle-atexit@*" xlink:title="mulle&#45;atexit">
<polygon fill="lightgrey" stroke="black" points="366,-108 264,-108 264,-72 366,-72 366,-108"/>
<text text-anchor="middle" x="315" y="-86.3" font-family="Times,serif" font-size="14.00">mulle&#45;atexit</text>
</a>
</g>
</g>
<!-- mulle&#45;core&#45;all&#45;load&#45;&gt;mulle&#45;atexit -->
<g id="edge3" class="edge">
<title>mulle&#45;core&#45;all&#45;load&#45;&gt;mulle&#45;atexit</title>
<path fill="none" stroke="black" d="M446.43,-143.88C422.44,-134.22 392.27,-122.09 366.9,-111.88"/>
<polygon fill="black" stroke="black" points="368.01,-108.55 357.43,-108.07 365.4,-115.05 368.01,-108.55"/>
</g>
<!-- mulle&#45;atinit -->
<g id="node7" class="node">
<title>mulle&#45;atinit</title>
<g id="a_node7"><a xlink:href="https://github.com/mulle-core/mulle-atinit@*" xlink:title="mulle&#45;atinit">
<polygon fill="lightgrey" stroke="black" points="483.5,-108 384.5,-108 384.5,-72 483.5,-72 483.5,-108"/>
<text text-anchor="middle" x="434" y="-86.3" font-family="Times,serif" font-size="14.00">mulle&#45;atinit</text>
</a>
</g>
</g>
<!-- mulle&#45;core&#45;all&#45;load&#45;&gt;mulle&#45;atinit -->
<g id="edge4" class="edge">
<title>mulle&#45;core&#45;all&#45;load&#45;&gt;mulle&#45;atinit</title>
<path fill="none" stroke="black" d="M475.4,-143.7C468.88,-135.39 460.93,-125.28 453.75,-116.14"/>
<polygon fill="black" stroke="black" points="456.37,-113.81 447.44,-108.1 450.87,-118.13 456.37,-113.81"/>
</g>
<!-- mulle&#45;c11 -->
<g id="node8" class="node">
<title>mulle&#45;c11</title>
<g id="a_node8"><a xlink:href="https://github.com/mulle-c/mulle-c11" xlink:title="mulle&#45;c11">
<polygon fill="lightgrey" stroke="black" points="588,-108 502,-108 502,-72 588,-72 588,-108"/>
<text text-anchor="middle" x="545" y="-86.3" font-family="Times,serif" font-size="14.00">mulle&#45;c11</text>
</a>
</g>
</g>
<!-- mulle&#45;core&#45;all&#45;load&#45;&gt;mulle&#45;c11 -->
<g id="edge5" class="edge">
<title>mulle&#45;core&#45;all&#45;load&#45;&gt;mulle&#45;c11</title>
<path fill="none" stroke="black" d="M502.84,-143.7C509.49,-135.39 517.58,-125.28 524.89,-116.14"/>
<polygon fill="black" stroke="black" points="527.8,-118.1 531.32,-108.1 522.34,-113.73 527.8,-118.1"/>
</g>
<!-- mulle&#45;dlfcn -->
<g id="node9" class="node">
<title>mulle&#45;dlfcn</title>
<g id="a_node9"><a xlink:href="https://github.com/mulle-core/mulle-dlfcn" xlink:title="mulle&#45;dlfcn">
<polygon fill="lightgrey" stroke="black" points="702,-108 606,-108 606,-72 702,-72 702,-108"/>
<text text-anchor="middle" x="654" y="-86.3" font-family="Times,serif" font-size="14.00">mulle&#45;dlfcn</text>
</a>
</g>
</g>
<!-- mulle&#45;core&#45;all&#45;load&#45;&gt;mulle&#45;dlfcn -->
<g id="edge6" class="edge">
<title>mulle&#45;core&#45;all&#45;load&#45;&gt;mulle&#45;dlfcn</title>
<path fill="none" stroke="black" d="M529.36,-143.88C552.02,-134.26 580.47,-122.19 604.47,-112.01"/>
<polygon fill="black" stroke="black" points="605.93,-115.2 613.77,-108.07 603.19,-108.75 605.93,-115.2"/>
</g>
<!-- mulle&#45;stacktrace -->
<g id="node10" class="node">
<title>mulle&#45;stacktrace</title>
<g id="a_node10"><a xlink:href="https://github.com/mulle-core/mulle-stacktrace@*" xlink:title="mulle&#45;stacktrace">
<polygon fill="lightgrey" stroke="black" points="855.5,-108 720.5,-108 720.5,-72 855.5,-72 855.5,-108"/>
<text text-anchor="middle" x="788" y="-86.3" font-family="Times,serif" font-size="14.00">mulle&#45;stacktrace</text>
</a>
</g>
</g>
<!-- mulle&#45;core&#45;all&#45;load&#45;&gt;mulle&#45;stacktrace -->
<g id="edge7" class="edge">
<title>mulle&#45;core&#45;all&#45;load&#45;&gt;mulle&#45;stacktrace</title>
<path fill="none" stroke="black" d="M561.76,-143.97C606.77,-133.43 664.52,-119.91 710.4,-109.17"/>
<polygon fill="black" stroke="black" points="711.36,-112.54 720.3,-106.85 709.77,-105.72 711.36,-112.54"/>
</g>
<!-- mulle&#45;thread -->
<g id="node11" class="node">
<title>mulle&#45;thread</title>
<g id="a_node11"><a xlink:href="https://github.com/mulle-concurrent/mulle-thread" xlink:title="mulle&#45;thread">
<polygon fill="lightgrey" stroke="black" points="982,-108 874,-108 874,-72 982,-72 982,-108"/>
<text text-anchor="middle" x="928" y="-86.3" font-family="Times,serif" font-size="14.00">mulle&#45;thread</text>
</a>
</g>
</g>
<!-- mulle&#45;core&#45;all&#45;load&#45;&gt;mulle&#45;thread -->
<g id="edge8" class="edge">
<title>mulle&#45;core&#45;all&#45;load&#45;&gt;mulle&#45;thread</title>
<path fill="none" stroke="black" d="M563.3,-153.27C637.26,-144.95 754.09,-130.14 863.88,-108.1"/>
<polygon fill="black" stroke="black" points="864.7,-111.5 873.81,-106.08 863.31,-104.64 864.7,-111.5"/>
</g>
<!-- dlfcn&#45;win32 -->
<g id="node2" class="node">
<title>dlfcn&#45;win32</title>
<g id="a_node2"><a xlink:href="https://github.com/mulle-core/dlfcn-win32" xlink:title="dlfcn&#45;win32">
<polygon fill="lightgrey" stroke="black" points="704,-36 604,-36 604,0 704,0 704,-36"/>
<text text-anchor="middle" x="654" y="-14.3" font-family="Times,serif" font-size="14.00">dlfcn&#45;win32</text>
</a>
</g>
</g>
<!-- mintomic -->
<g id="node4" class="node">
<title>mintomic</title>
<g id="a_node4"><a xlink:href="https://github.com/mulle-concurrent/mintomic" xlink:title="mintomic">
<polygon fill="lightgrey" stroke="black" points="969.5,-36 886.5,-36 886.5,0 969.5,0 969.5,-36"/>
<text text-anchor="middle" x="928" y="-14.3" font-family="Times,serif" font-size="14.00">mintomic</text>
</a>
</g>
</g>
<!-- mulle&#45;dlfcn&#45;&gt;dlfcn&#45;win32 -->
<g id="edge9" class="edge">
<title>mulle&#45;dlfcn&#45;&gt;dlfcn&#45;win32</title>
<path fill="none" stroke="black" d="M654,-71.7C654,-63.98 654,-54.71 654,-46.11"/>
<polygon fill="black" stroke="black" points="657.5,-46.1 654,-36.1 650.5,-46.1 657.5,-46.1"/>
</g>
<!-- mulle&#45;thread&#45;&gt;mintomic -->
<g id="edge10" class="edge">
<title>mulle&#45;thread&#45;&gt;mintomic</title>
<path fill="none" stroke="black" d="M928,-71.7C928,-63.98 928,-54.71 928,-46.11"/>
<polygon fill="black" stroke="black" points="931.5,-46.1 928,-36.1 924.5,-46.1 931.5,-46.1"/>
</g>
</g>
</svg>
