<?xml version="1.0" encoding="UTF-8" standalone="no"?>
<!DOCTYPE svg PUBLIC "-//W3C//DTD SVG 1.1//EN"
 "http://www.w3.org/Graphics/SVG/1.1/DTD/svg11.dtd">
<!-- Generated by graphviz version 14.1.2 (0)
 -->
<!-- Title: sourcetree Pages: 1 -->
<svg width="984pt" height="116pt"
 viewBox="0.00 0.00 984.00 116.00" xmlns="http://www.w3.org/2000/svg" xmlns:xlink="http://www.w3.org/1999/xlink">
<g id="graph0" class="graph" transform="scale(1 1) rotate(0) translate(4 112)">
<title>sourcetree</title>
<polygon fill="white" stroke="none" points="-4,4 -4,-112 979.62,-112 979.62,4 -4,4"/>
<!-- mulle&#45;core&#45;all&#45;load -->
<g id="node1" class="node">
<title>mulle&#45;core&#45;all&#45;load</title>
<polygon fill="yellow" stroke="black" points="559.5,-108 412.25,-108 412.25,-72 559.5,-72 559.5,-108"/>
<text xml:space="preserve" text-anchor="middle" x="485.88" y="-85.33" font-family="Times,serif" font-size="14.00">mulle&#45;core&#45;all&#45;load</text>
</g>
<!-- libbacktrace -->
<g id="node2" class="node">
<title>libbacktrace</title>
<g id="a_node2"><a xlink:href="https://github.com/mulle-core/libbacktrace" xlink:title="libbacktrace">
<polygon fill="lightgrey" stroke="black" points="103.75,-36 0,-36 0,0 103.75,0 103.75,-36"/>
<text xml:space="preserve" text-anchor="middle" x="51.88" y="-13.32" font-family="Times,serif" font-size="14.00">libbacktrace</text>
</a>
</g>
</g>
<!-- mulle&#45;core&#45;all&#45;load&#45;&gt;libbacktrace -->
<g id="edge1" class="edge">
<title>mulle&#45;core&#45;all&#45;load&#45;&gt;libbacktrace</title>
<path fill="none" stroke="black" d="M411.78,-81.36C338.66,-73.17 223.58,-58.53 115.15,-36.33"/>
<polygon fill="black" stroke="black" points="115.99,-32.93 105.49,-34.32 114.57,-39.78 115.99,-32.93"/>
</g>
<!-- mulle&#45;allocator -->
<g id="node3" class="node">
<title>mulle&#45;allocator</title>
<g id="a_node3"><a xlink:href="https://github.com/mulle-c/mulle-allocator" xlink:title="mulle&#45;allocator">
<polygon fill="lightgrey" stroke="black" points="244.12,-36 121.62,-36 121.62,0 244.12,0 244.12,-36"/>
<text xml:space="preserve" text-anchor="middle" x="182.88" y="-13.32" font-family="Times,serif" font-size="14.00">mulle&#45;allocator</text>
</a>
</g>
</g>
<!-- mulle&#45;core&#45;all&#45;load&#45;&gt;mulle&#45;allocator -->
<g id="edge2" class="edge">
<title>mulle&#45;core&#45;all&#45;load&#45;&gt;mulle&#45;allocator</title>
<path fill="none" stroke="black" d="M411.83,-72.45C368.78,-62.76 313.2,-50.13 255.5,-36.6"/>
<polygon fill="black" stroke="black" points="256.33,-33.2 245.8,-34.32 254.73,-40.02 256.33,-33.2"/>
</g>
<!-- mulle&#45;atexit -->
<g id="node4" class="node">
<title>mulle&#45;atexit</title>
<g id="a_node4"><a xlink:href="https://github.com/mulle-core/mulle-atexit@*" xlink:title="mulle&#45;atexit">
<polygon fill="lightgrey" stroke="black" points="363.62,-36 262.12,-36 262.12,0 363.62,0 363.62,-36"/>
<text xml:space="preserve" text-anchor="middle" x="312.88" y="-13.32" font-family="Times,serif" font-size="14.00">mulle&#45;atexit</text>
</a>
</g>
</g>
<!-- mulle&#45;core&#45;all&#45;load&#45;&gt;mulle&#45;atexit -->
<g id="edge3" class="edge">
<title>mulle&#45;core&#45;all&#45;load&#45;&gt;mulle&#45;atexit</title>
<path fill="none" stroke="black" d="M442.67,-71.52C419.56,-62.17 390.91,-50.57 366.41,-40.66"/>
<polygon fill="black" stroke="black" points="367.82,-37.46 357.24,-36.95 365.19,-43.94 367.82,-37.46"/>
</g>
<!-- mulle&#45;atinit -->
<g id="node5" class="node">
<title>mulle&#45;atinit</title>
<g id="a_node5"><a xlink:href="https://github.com/mulle-core/mulle-atinit@*" xlink:title="mulle&#45;atinit">
<polygon fill="lightgrey" stroke="black" points="480.12,-36 381.62,-36 381.62,0 480.12,0 480.12,-36"/>
<text xml:space="preserve" text-anchor="middle" x="430.88" y="-13.32" font-family="Times,serif" font-size="14.00">mulle&#45;atinit</text>
</a>
</g>
</g>
<!-- mulle&#45;core&#45;all&#45;load&#45;&gt;mulle&#45;atinit -->
<g id="edge4" class="edge">
<title>mulle&#45;core&#45;all&#45;load&#45;&gt;mulle&#45;atinit</title>
<path fill="none" stroke="black" d="M472.28,-71.7C465.95,-63.64 458.29,-53.89 451.29,-44.98"/>
<polygon fill="black" stroke="black" points="454.18,-43 445.25,-37.29 448.68,-47.32 454.18,-43"/>
</g>
<!-- mulle&#45;c11 -->
<g id="node6" class="node">
<title>mulle&#45;c11</title>
<g id="a_node6"><a xlink:href="https://github.com/mulle-c/mulle-c11" xlink:title="mulle&#45;c11">
<polygon fill="lightgrey" stroke="black" points="583.75,-36 498,-36 498,0 583.75,0 583.75,-36"/>
<text xml:space="preserve" text-anchor="middle" x="540.88" y="-13.32" font-family="Times,serif" font-size="14.00">mulle&#45;c11</text>
</a>
</g>
</g>
<!-- mulle&#45;core&#45;all&#45;load&#45;&gt;mulle&#45;c11 -->
<g id="edge5" class="edge">
<title>mulle&#45;core&#45;all&#45;load&#45;&gt;mulle&#45;c11</title>
<path fill="none" stroke="black" d="M499.47,-71.7C505.8,-63.64 513.46,-53.89 520.46,-44.98"/>
<polygon fill="black" stroke="black" points="523.07,-47.32 526.5,-37.29 517.57,-43 523.07,-47.32"/>
</g>
<!-- mulle&#45;dlfcn -->
<g id="node7" class="node">
<title>mulle&#45;dlfcn</title>
<g id="a_node7"><a xlink:href="https://github.com/mulle-core/mulle-dlfcn" xlink:title="mulle&#45;dlfcn">
<polygon fill="lightgrey" stroke="black" points="697.62,-36 602.12,-36 602.12,0 697.62,0 697.62,-36"/>
<text xml:space="preserve" text-anchor="middle" x="649.88" y="-13.32" font-family="Times,serif" font-size="14.00">mulle&#45;dlfcn</text>
</a>
</g>
</g>
<!-- mulle&#45;core&#45;all&#45;load&#45;&gt;mulle&#45;dlfcn -->
<g id="edge6" class="edge">
<title>mulle&#45;core&#45;all&#45;load&#45;&gt;mulle&#45;dlfcn</title>
<path fill="none" stroke="black" d="M526.84,-71.52C548.64,-62.21 575.66,-50.68 598.82,-40.79"/>
<polygon fill="black" stroke="black" points="599.94,-44.12 607.76,-36.98 597.19,-37.68 599.94,-44.12"/>
</g>
<!-- mulle&#45;stacktrace -->
<g id="node8" class="node">
<title>mulle&#45;stacktrace</title>
<g id="a_node8"><a xlink:href="https://github.com/mulle-core/mulle-stacktrace@*" xlink:title="mulle&#45;stacktrace">
<polygon fill="lightgrey" stroke="black" points="850.12,-36 715.62,-36 715.62,0 850.12,0 850.12,-36"/>
<text xml:space="preserve" text-anchor="middle" x="782.88" y="-13.32" font-family="Times,serif" font-size="14.00">mulle&#45;stacktrace</text>
</a>
</g>
</g>
<!-- mulle&#45;core&#45;all&#45;load&#45;&gt;mulle&#45;stacktrace -->
<g id="edge7" class="edge">
<title>mulle&#45;core&#45;all&#45;load&#45;&gt;mulle&#45;stacktrace</title>
<path fill="none" stroke="black" d="M559.67,-71.61C603.62,-61.25 659.37,-48.11 704.16,-37.55"/>
<polygon fill="black" stroke="black" points="704.9,-40.97 713.83,-35.27 703.29,-34.16 704.9,-40.97"/>
</g>
<!-- mulle&#45;thread -->
<g id="node9" class="node">
<title>mulle&#45;thread</title>
<g id="a_node9"><a xlink:href="https://github.com/mulle-concurrent/mulle-thread" xlink:title="mulle&#45;thread">
<polygon fill="lightgrey" stroke="black" points="975.62,-36 868.12,-36 868.12,0 975.62,0 975.62,-36"/>
<text xml:space="preserve" text-anchor="middle" x="921.88" y="-13.32" font-family="Times,serif" font-size="14.00">mulle&#45;thread</text>
</a>
</g>
</g>
<!-- mulle&#45;core&#45;all&#45;load&#45;&gt;mulle&#45;thread -->
<g id="edge8" class="edge">
<title>mulle&#45;core&#45;all&#45;load&#45;&gt;mulle&#45;thread</title>
<path fill="none" stroke="black" d="M559.94,-81.18C633.02,-72.86 748.09,-58.12 856.53,-36.34"/>
<polygon fill="black" stroke="black" points="857.1,-39.8 866.2,-34.38 855.7,-32.94 857.1,-39.8"/>
</g>
</g>
</svg>
